<svg xmlns="http://www.w3.org/2000/svg" xmlns:xlink="http://www.w3.org/1999/xlink" width="96" zoomAndPan="magnify" viewBox="0 0 72 72" height="96" preserveAspectRatio="xMidYMid meet" version="1.0"><defs><g/></defs><g fill="#059669" fill-opacity="1"><g transform="translate(11.029813, 57.301683)"><g><path d="M 47.8125 -22.453125 C 47.8125 -19.890625 47.40625 -17.398438 46.59375 -14.984375 C 45.78125 -12.566406 44.613281 -10.351562 43.09375 -8.34375 C 41.570312 -6.332031 39.726562 -4.578125 37.5625 -3.078125 C 35.40625 -1.578125 32.984375 -0.488281 30.296875 0.1875 L 30.296875 5.78125 L 20.015625 5.78125 L 20.015625 -17.328125 L 30.296875 -17.328125 L 30.296875 -12 C 32.210938 -12.9375 33.726562 -14.335938 34.84375 -16.203125 C 35.957031 -18.066406 36.515625 -20.148438 36.515625 -22.453125 C 36.515625 -23.992188 36.234375 -25.46875 35.671875 -26.875 C 35.117188 -28.289062 34.328125 -29.546875 33.296875 -30.640625 C 32.273438 -31.734375 31.054688 -32.609375 29.640625 -33.265625 C 28.234375 -33.929688 26.675781 -34.265625 24.96875 -34.265625 C 23.289062 -34.265625 21.742188 -33.941406 20.328125 -33.296875 C 18.921875 -32.660156 17.703125 -31.796875 16.671875 -30.703125 C 15.648438 -29.609375 14.847656 -28.34375 14.265625 -26.90625 C 13.691406 -25.476562 13.40625 -23.992188 13.40625 -22.453125 C 13.40625 -20.535156 13.78125 -18.75 14.53125 -17.09375 C 15.28125 -15.445312 16.34375 -14.132812 17.71875 -13.15625 L 17.71875 -0.390625 C 15.363281 -1.203125 13.234375 -2.332031 11.328125 -3.78125 C 9.421875 -5.238281 7.78125 -6.929688 6.40625 -8.859375 C 5.039062 -10.785156 3.984375 -12.898438 3.234375 -15.203125 C 2.492188 -17.515625 2.125 -19.929688 2.125 -22.453125 C 2.125 -25.578125 2.707031 -28.550781 3.875 -31.375 C 5.050781 -34.195312 6.664062 -36.664062 8.71875 -38.78125 C 10.78125 -40.90625 13.203125 -42.585938 15.984375 -43.828125 C 18.765625 -45.066406 21.757812 -45.6875 24.96875 -45.6875 C 28.21875 -45.6875 31.234375 -45.054688 34.015625 -43.796875 C 36.796875 -42.535156 39.210938 -40.84375 41.265625 -38.71875 C 43.316406 -36.601562 44.921875 -34.144531 46.078125 -31.34375 C 47.234375 -28.539062 47.8125 -25.578125 47.8125 -22.453125 Z M 47.8125 -22.453125 "/></g></g></g></svg>